# xmcd
# 
# Track frame offsets:
#     150
#     24375
#     48747
#     74405
#     97160
#     114565
#     132017
#     143330
#     159907
#     180737
#     202520
# 
# Disc length: 3007
# 
# Revision: 2
# Processed by: cddbd v1.5.2PL0 Copyright (c) Steve Scherf et al.
# Submitted via: fre:ac v1.0.31
# 
DISCID=8d0bbd0b
DTITLE=Various Artist - Mega Sounds 3 . Enchanted Land
DYEAR=0
DGENRE=New Age
TTITLE0=Steve McDonald - Scotland The Brave
TTITLE1=Steve McDonald - Fallen Flowers
TTITLE2=Denean - Ray Of Love
TTITLE3=Denean - To The Children
TTITLE4=Kenny Passarelli - The Vision (Begins)
TTITLE5=Christopher Franke - Celtic Mist
TTITLE6=Kim Robertson - Dance Of The Lambs
TTITLE7=Alturas - Enchanted Land
TTITLE8=Primal Instinct - Mystic River
TTITLE9=Echoes of Incas - Ojos Azules
TTITLE10=Christopher Franke - Purple Waves
EXTD=
EXTT0=
EXTT1=
EXTT2=
EXTT3=
EXTT4=
EXTT5=
EXTT6=
EXTT7=
EXTT8=
EXTT9=
EXTT10=
PLAYORDER=
